<svg id="Layer_2" height="512" viewBox="0 0 64 64" width="512" xmlns="http://www.w3.org/2000/svg" data-name="Layer 2"><path d="m32 59c-7.79 0-14.12-8.64-14.12-19.25a1 1 0 0 1 2 0c0 9.5 5.43 17.25 12.12 17.25s12.13-7.74 12.13-17.25a1 1 0 1 1 2 0c0 10.6-6.34 19.25-14.13 19.25z" fill="#2b6350"/><path d="m63 30.45c0 5.55-13.89 10.12-31 10.12a75.59 75.59 0 0 1 -20.86-2.64c-6.22-1.85-10.14-4.52-10.14-7.48 0-4 7.1-7.41 17.25-9.08h27.45c9.97 1.63 17.3 5.16 17.3 9.08z" fill="#f78453"/><path d="m45.7 13.49v7.51l-1.29.4a44 44 0 0 1 -11.48 1.78 44.07 44.07 0 0 1 -7-.42 42.86 42.86 0 0 1 -6.25-1.34l-1.38-.42v-7.51a7.47 7.47 0 0 1 13.7-4.13 7.47 7.47 0 0 1 13.7 4.13z" fill="#f78453"/><path d="m32 9.36s-5.75-2.61-6 2.64c-.11 2.24-.12 5.91-.1 9.36v1.35c0 4.08.1 7.54.1 7.54l-.2.1-14.66 7.58c-6.22-1.85-10.14-4.52-10.14-7.48 0-4 7.1-7.41 17.25-9.08v-7.88a7.47 7.47 0 0 1 13.75-4.13z" fill="#f26959"/><path d="m45.7 21v7.16a34.84 34.84 0 0 1 -13.39 2.8 34.19 34.19 0 0 1 -6.51-.56 34 34 0 0 1 -7.5-2.24v-7.16l1.35.42a42.86 42.86 0 0 0 6.25 1.34 44.07 44.07 0 0 0 7 .42 44 44 0 0 0 11.48-1.78z" fill="#67bfa6"/><g fill="#fff"><path d="m41.5 11.5a.5.5 0 0 1 -.48-.36 2.53 2.53 0 0 0 -2.93-1.65.51.51 0 0 1 -.58-.4.5.5 0 0 1 .4-.58 3.49 3.49 0 0 1 4.09 2.35.5.5 0 0 1 -.33.62z" opacity=".5"/><path d="m25.9 38a29 29 0 0 1 -7.29-1 .5.5 0 1 1 .28-1 27.6 27.6 0 0 0 8.11 1 .49.49 0 0 1 .53.47.5.5 0 0 1 -.53.53c-.35 0-.73 0-1.1 0z" opacity=".5"/></g></svg>